<svg width="200" height="48" viewBox="0 0 200 48" fill="none" xmlns="http://www.w3.org/2000/svg">
<g clip-path="url(#clip0_332_65)">
<path d="M58.1533 47.3162V41.8477H59.3565V46.3316H62.0905V47.3147L58.1533 47.3162Z" fill="#010101"/>
<path d="M66.2468 47.5351C65.882 47.5704 65.5141 47.5195 65.1725 47.3866C64.831 47.2537 64.5254 47.0424 64.2805 46.7697C63.804 46.1427 63.57 45.3646 63.6218 44.5788C63.6315 44.1688 63.7052 43.7628 63.8404 43.3756C63.9802 43.026 64.1639 42.6956 64.3872 42.3924C64.6354 42.1484 64.9341 41.9618 65.2622 41.8456C65.6087 41.7013 65.9804 41.627 66.3557 41.627C66.7311 41.627 67.1028 41.7013 67.4493 41.8456C67.7774 41.9618 68.0761 42.1484 68.3243 42.3924C68.5919 42.6648 68.7808 43.0046 68.8711 43.3756C69.0058 43.8004 69.0794 44.2422 69.0896 44.6877C69.1412 45.472 68.9081 46.2485 68.4332 46.8748C67.7855 47.3058 67.0248 47.5355 66.2468 47.5351V47.5351ZM66.2468 46.5519C66.4363 46.5804 66.6298 46.5416 66.7936 46.4422C66.9033 46.3326 67.1218 46.2237 67.2307 46.114C67.3641 45.9472 67.4745 45.7633 67.559 45.5672C67.6561 45.2864 67.6934 44.9884 67.6686 44.6922C67.6888 44.1624 67.5759 43.6359 67.3404 43.1608C67.213 42.9911 67.0479 42.8534 66.8581 42.7585C66.6683 42.6636 66.459 42.6143 66.2468 42.6143C66.0346 42.6143 65.8254 42.6636 65.6356 42.7585C65.4458 42.8534 65.2806 42.9911 65.1533 43.1608C64.864 43.6189 64.7123 44.1504 64.7161 44.6922C64.687 44.9466 64.7108 45.2042 64.786 45.4488C64.8613 45.6935 64.9863 45.92 65.1533 46.114C65.2794 46.2785 65.4475 46.406 65.64 46.4829C65.8324 46.5599 66.0421 46.5834 66.2468 46.5511V46.5519Z" fill="#010101"/>
<path d="M74.9993 47.3167V46.7722C74.8613 47.034 74.6253 47.2306 74.3429 47.3189C74.0288 47.4433 73.6969 47.5171 73.3597 47.5375C73.0209 47.5291 72.687 47.4549 72.3766 47.3189C72.0521 47.1972 71.781 46.9647 71.6112 46.6625C71.3437 46.3901 71.1547 46.0504 71.0645 45.6793C70.9367 45.3254 70.861 44.9547 70.8398 44.579C70.8489 44.2046 70.9228 43.8345 71.0584 43.4854C71.1982 43.1358 71.3819 42.8054 71.6052 42.5023C71.8765 42.2575 72.1693 42.0378 72.4802 41.8458C72.8675 41.7114 73.2735 41.6385 73.6834 41.6295C73.9795 41.6047 74.2776 41.642 74.5584 41.7392C74.8354 41.8426 75.0939 41.9903 75.3238 42.1763C75.5423 42.3949 75.7609 42.5045 75.8705 42.7231C76.0075 42.9554 76.0827 43.2189 76.0891 43.4884H74.777C74.777 43.3788 74.6673 43.2699 74.6673 43.1602C74.5577 43.0506 74.5577 42.9417 74.3391 42.832C74.2294 42.7223 74.1205 42.7223 73.902 42.6134C73.7923 42.6134 73.5738 42.5038 73.4649 42.5038C73.2524 42.5021 73.0425 42.5508 72.8524 42.6458C72.6623 42.7409 72.4975 42.8796 72.3713 43.0506C72.0338 43.4857 71.8772 44.0343 71.9342 44.582C71.9169 44.8065 71.9545 45.0318 72.0438 45.2384C72.1535 45.457 72.1535 45.6756 72.2624 45.8949C72.3713 46.1142 72.5906 46.2231 72.6995 46.332C72.8991 46.4533 73.1235 46.528 73.3559 46.5506C73.545 46.5676 73.7349 46.5295 73.9027 46.4409C74.1213 46.3313 74.231 46.3313 74.3399 46.2224C74.4749 46.0978 74.5861 45.9497 74.6681 45.7852C74.755 45.657 74.7938 45.5022 74.7777 45.3481H73.5738V44.4731H75.8705V47.4225H74.9993V47.3167Z" fill="#010101"/>
<path d="M77.9487 47.3162V41.8477H79.152V47.3162H77.9487Z" fill="#010101"/>
<path d="M86.0414 45.4568C85.9807 45.7645 85.8698 46.0601 85.7132 46.3318C85.5643 46.5764 85.3801 46.7976 85.1664 46.9882C84.9745 47.1708 84.7524 47.3187 84.5099 47.4253C84.2291 47.5225 83.9311 47.5598 83.6349 47.535C83.2977 47.5146 82.9659 47.4408 82.6518 47.3164C82.3561 47.1989 82.0934 47.0113 81.8864 46.7696C81.6424 46.5214 81.4558 46.2228 81.3397 45.8946C81.2045 45.5074 81.1308 45.1014 81.1211 44.6914C81.1405 44.2468 81.2139 43.8062 81.3397 43.3793C81.4794 43.0297 81.6632 42.6993 81.8864 42.3961C82.0934 42.1545 82.3561 41.9668 82.6518 41.8493C83.0006 41.7133 83.3703 41.6389 83.7446 41.6293C84.0761 41.6116 84.4083 41.6487 84.7277 41.7389C85.0158 41.8175 85.2791 41.9679 85.4931 42.1761C85.6757 42.3679 85.8236 42.59 85.9302 42.8325C86.0529 43.0707 86.1272 43.3308 86.1488 43.5978H84.9471C84.8685 43.3098 84.7181 43.0465 84.5099 42.8325C84.4068 42.7413 84.2845 42.6743 84.152 42.6364C84.0196 42.5986 83.8804 42.5909 83.7446 42.6139C83.5321 42.6123 83.3222 42.661 83.1322 42.756C82.9421 42.8511 82.7772 42.9897 82.651 43.1607C82.4149 43.5962 82.3015 44.0876 82.3228 44.5825C82.2872 45.0786 82.4016 45.574 82.651 46.0043C82.7543 46.1721 82.8989 46.3105 83.0711 46.4063C83.2433 46.502 83.4372 46.5519 83.6342 46.5511C83.9575 46.5598 84.2714 46.442 84.5092 46.2229C84.7173 46.0089 84.8677 45.7455 84.9463 45.4575H86.0399L86.0414 45.4568Z" fill="#010101"/>
<path d="M91.6191 47.3171V41.8485H94.3531C94.5741 41.8171 94.7994 41.8406 95.0093 41.9168C95.2191 41.993 95.4069 42.1197 95.5563 42.2856C95.7121 42.4189 95.8333 42.5881 95.9095 42.7786C95.9856 42.969 96.0144 43.1751 95.9934 43.3792C95.9708 43.6116 95.8961 43.836 95.7748 44.0356C95.6652 44.2542 95.4466 44.3638 95.3377 44.4727C95.4474 44.4727 95.5563 44.5824 95.6659 44.6913C95.7756 44.8002 95.8845 44.801 95.8845 44.9099C95.8845 45.0188 95.9942 45.1284 96.1031 45.2381C96.1503 45.418 96.1869 45.6006 96.2127 45.7849C96.2152 46.0137 96.1675 46.2402 96.073 46.4486C95.9786 46.657 95.8396 46.8422 95.6659 46.9911C95.2308 47.3286 94.6822 47.4852 94.1345 47.4282H91.6191V47.3171ZM92.7127 42.8316V44.0349H94.1345C94.5716 44.0349 94.7909 43.8163 94.7909 43.4881C94.7893 43.4035 94.7689 43.3204 94.7311 43.2448C94.6933 43.1692 94.639 43.1029 94.5724 43.0509C94.4085 42.9516 94.2151 42.9128 94.0256 42.9413H92.7127V42.8316ZM94.1345 46.4405C94.3669 46.4179 94.5913 46.3432 94.7909 46.222C95.0095 46.1123 95.0095 45.8938 95.0095 45.6752C95.012 45.574 94.9939 45.4734 94.9563 45.3794C94.9187 45.2854 94.8624 45.2001 94.7909 45.1285C94.7193 45.0569 94.6339 45.0006 94.54 44.963C94.446 44.9255 94.3453 44.9074 94.2442 44.9099H92.7127V46.4413L94.1345 46.4405Z" fill="#010101"/>
<path d="M101.243 41.8477H102.447V45.5662C102.47 46.1284 102.274 46.6777 101.9 47.0977C101.428 47.4557 100.851 47.648 100.259 47.6445C99.6794 47.6837 99.1027 47.53 98.619 47.2073C98.1819 46.8791 98.0723 46.442 98.0723 45.6759V41.9573H99.2755V45.5662C99.2648 45.8381 99.3413 46.1063 99.4941 46.3316C99.5903 46.4384 99.7085 46.5231 99.8407 46.5798C99.9728 46.6365 100.116 46.6638 100.259 46.6598C101.025 46.6598 101.353 46.3316 101.353 45.5662V41.8477H101.243Z" fill="#010101"/>
<path d="M104.524 47.3162V41.8477H105.727V47.3162H104.524Z" fill="#010101"/>
<path d="M107.806 47.3162V41.8477H109.009V46.3316H111.743V47.3147L107.806 47.3162Z" fill="#010101"/>
<path d="M113.601 47.3167V42.7224H111.961V41.7393H116.445V42.7224H114.805V47.316L113.601 47.3167Z" fill="#010101"/>
<path d="M123.117 45.0195V47.3162H121.914V41.8477H125.851V42.8308H123.117V44.034H125.522V45.0172L123.117 45.0195Z" fill="#010101"/>
<path d="M130.116 47.5351C129.751 47.5704 129.383 47.5195 129.042 47.3866C128.7 47.2537 128.395 47.0424 128.15 46.7697C127.673 46.1427 127.439 45.3646 127.491 44.5788C127.501 44.1688 127.574 43.7628 127.71 43.3756C127.849 43.026 128.033 42.6956 128.256 42.3924C128.505 42.1484 128.803 41.9618 129.131 41.8456C129.478 41.7013 129.849 41.627 130.225 41.627C130.6 41.627 130.972 41.7013 131.318 41.8456C131.647 41.9618 131.945 42.1484 132.193 42.3924C132.461 42.6648 132.65 43.0046 132.74 43.3756C132.875 43.8004 132.949 44.2422 132.959 44.6877C133.01 45.472 132.777 46.2485 132.302 46.8748C131.662 47.3203 130.896 47.5514 130.116 47.5351V47.5351ZM130.116 46.5519C130.305 46.5804 130.499 46.5416 130.663 46.4422C130.772 46.3326 130.991 46.2237 131.1 46.114C131.233 45.9472 131.344 45.7633 131.428 45.5672C131.525 45.2864 131.563 44.9884 131.538 44.6922C131.558 44.1624 131.445 43.6359 131.21 43.1608C131.082 42.9911 130.917 42.8534 130.727 42.7585C130.537 42.6636 130.328 42.6143 130.116 42.6143C129.904 42.6143 129.695 42.6636 129.505 42.7585C129.315 42.8534 129.15 42.9911 129.022 43.1608C128.733 43.6189 128.581 44.1504 128.585 44.6922C128.556 44.9466 128.58 45.2042 128.655 45.4488C128.73 45.6935 128.855 45.92 129.022 46.114C129.162 46.2617 129.332 46.3773 129.521 46.4528C129.71 46.5282 129.913 46.5618 130.116 46.5511V46.5519Z" fill="#010101"/>
<path d="M137.991 47.3164V45.8946C137.987 45.6918 137.909 45.4974 137.772 45.3478C137.59 45.1927 137.354 45.1144 137.116 45.1293H135.912V47.3164H134.819V41.8478H137.662C137.887 41.8306 138.112 41.8682 138.319 41.9575C138.515 42.042 138.699 42.1524 138.866 42.2857C138.999 42.4525 139.109 42.6364 139.194 42.8325C139.283 43.0392 139.321 43.2645 139.304 43.4889C139.297 43.7585 139.222 44.022 139.085 44.2543C139.028 44.3818 138.936 44.4905 138.82 44.5679C138.704 44.6452 138.568 44.6881 138.429 44.6914C138.625 44.7759 138.809 44.8863 138.975 45.0196C139.085 45.1293 139.085 45.4568 139.085 45.785V47.3164H137.991ZM135.912 42.831V44.2528H137.334C137.573 44.2677 137.808 44.1893 137.991 44.0342C138.131 43.8868 138.209 43.691 138.209 43.4874C138.209 43.2838 138.131 43.088 137.991 42.9406C137.808 42.7856 137.573 42.7073 137.334 42.7221H135.912V42.831Z" fill="#010101"/>
<path d="M144.88 47.3162V41.8477H146.083V47.3162H144.88Z" fill="#010101"/>
<path d="M151.552 47.3162L149.146 43.5977V47.3162H148.052V41.8477H149.255L151.442 45.3477V41.8477H152.536V47.3162H151.552Z" fill="#010101"/>
<path d="M158.114 47.3162L155.708 43.5977V47.3162H154.614V41.8477H155.817L158.004 45.3477V41.8477H159.098V47.3162H158.114Z" fill="#010101"/>
<path d="M163.91 47.5351C163.545 47.5704 163.177 47.5195 162.836 47.3866C162.494 47.2537 162.189 47.0424 161.944 46.7697C161.467 46.1427 161.233 45.3646 161.285 44.5788C161.295 44.1688 161.368 43.7628 161.503 43.3756C161.643 43.026 161.827 42.6956 162.05 42.3924C162.298 42.1484 162.597 41.9618 162.925 41.8456C163.272 41.7013 163.643 41.627 164.019 41.627C164.394 41.627 164.766 41.7013 165.112 41.8456C165.441 41.9617 165.739 42.1484 165.987 42.3924C166.255 42.6648 166.444 43.0046 166.534 43.3756C166.669 43.8004 166.742 44.2422 166.753 44.6877C166.804 45.472 166.571 46.2485 166.096 46.8748C165.442 47.2917 164.686 47.5201 163.91 47.5351ZM163.91 46.5519C164.099 46.5804 164.293 46.5416 164.457 46.4422C164.566 46.3326 164.785 46.2237 164.894 46.114C165.027 45.9472 165.138 45.7633 165.222 45.5672C165.319 45.2864 165.357 44.9884 165.332 44.6922C165.352 44.1624 165.239 43.6359 165.003 43.1608C164.876 42.9911 164.711 42.8534 164.521 42.7585C164.331 42.6636 164.122 42.6143 163.91 42.6143C163.698 42.6143 163.488 42.6636 163.299 42.7585C163.109 42.8534 162.944 42.9911 162.816 43.1608C162.527 43.6189 162.375 44.1504 162.379 44.6922C162.35 44.9466 162.374 45.2042 162.449 45.4488C162.524 45.6935 162.649 45.92 162.816 46.114C162.942 46.2785 163.111 46.406 163.303 46.4829C163.496 46.5599 163.705 46.5834 163.91 46.5511V46.5519Z" fill="#010101"/>
<path d="M169.596 47.3162L167.737 41.8477H168.941L170.144 45.6751L171.347 41.8477H172.55L170.687 47.3162H169.596Z" fill="#010101"/>
<path d="M176.925 47.3162L176.597 46.2227H174.518L174.081 47.3162H172.878L174.844 41.8477H176.156L178.123 47.3162H176.925ZM175.503 43.0509L174.738 45.238H176.159L175.503 43.0509Z" fill="#010101"/>
<path d="M180.096 47.3167V42.7224H178.456V41.7393H182.939V42.7224H181.299V47.316L180.096 47.3167Z" fill="#010101"/>
<path d="M184.908 47.3162V41.8477H186.111V47.3162H184.908Z" fill="#010101"/>
<path d="M190.705 47.5351C190.34 47.5704 189.972 47.5195 189.631 47.3866C189.289 47.2537 188.983 47.0424 188.739 46.7697C188.262 46.1427 188.028 45.3646 188.08 44.5788C188.089 44.1688 188.163 43.7628 188.298 43.3756C188.438 43.026 188.622 42.6956 188.845 42.3924C189.093 42.1484 189.392 41.9618 189.72 41.8456C190.067 41.7013 190.438 41.627 190.814 41.627C191.189 41.627 191.561 41.7013 191.907 41.8456C192.235 41.9618 192.534 42.1484 192.782 42.3924C193.05 42.6648 193.239 43.0046 193.329 43.3756C193.464 43.8004 193.537 44.2422 193.548 44.6877C193.599 45.472 193.366 46.2485 192.891 46.8748C192.25 47.3203 191.485 47.5514 190.705 47.5351V47.5351ZM190.705 46.5519C190.894 46.5804 191.088 46.5416 191.252 46.4422C191.361 46.3326 191.58 46.2237 191.689 46.114C191.822 45.9472 191.932 45.7633 192.017 45.5672C192.114 45.2864 192.151 44.9884 192.127 44.6922C192.147 44.1624 192.034 43.6359 191.798 43.1608C191.671 42.9911 191.506 42.8534 191.316 42.7585C191.126 42.6636 190.917 42.6143 190.705 42.6143C190.493 42.6143 190.283 42.6636 190.094 42.7585C189.904 42.8534 189.739 42.9911 189.611 43.1608C189.322 43.6189 189.17 44.1504 189.174 44.6922C189.145 44.9466 189.169 45.2042 189.244 45.4488C189.319 45.6935 189.444 45.92 189.611 46.114C189.737 46.2785 189.905 46.406 190.098 46.4829C190.29 46.5599 190.5 46.5834 190.705 46.5511V46.5519Z" fill="#010101"/>
<path d="M198.797 47.3162L196.392 43.5977V47.3162H195.297V41.8477H196.501L198.688 45.3477V41.8477H199.781V47.3162H198.797Z" fill="#010101"/>
<path d="M37.9498 47.2978H30.732L20.0141 28.8146H25.4827C27.08 28.8184 28.6138 28.1892 29.7481 27.0645C30.3392 26.5057 30.8018 25.8251 31.104 25.0698C31.4061 24.3145 31.5406 23.5026 31.4981 22.6903C31.4839 21.0995 30.8455 19.5778 29.7204 18.453C28.5954 17.3282 27.0736 16.6902 25.4827 16.6764H13.1245L9.62451 10.5506H25.7013C27.3016 10.5317 28.8896 10.8315 30.3729 11.4324C31.8561 12.0333 33.205 12.9233 34.3409 14.0507C35.4886 15.1715 36.3921 16.5176 36.9944 18.0045C37.5967 19.4913 37.8849 21.0867 37.8409 22.6903C37.9455 25.1558 37.213 27.5841 35.7627 29.5807C34.5733 31.6537 32.7259 33.2703 30.5134 34.1742L37.9498 47.2978Z" fill="#D23427"/>
<path d="M21.3268 47.2987H10.7178C9.31674 47.3087 7.92745 47.0419 6.62971 46.5136C5.33196 45.9853 4.15131 45.206 3.15551 44.2203C2.1597 43.2346 1.36834 42.0619 0.826835 40.7697C0.285331 39.4774 0.00434565 38.0909 0 36.6898V10.333L6.12578 21.0509V35.8155C6.12618 37.2076 6.67936 38.5425 7.6637 39.5269C8.64804 40.5112 9.98298 41.0644 11.3751 41.0648H17.7179L21.3268 47.2987Z" fill="#010101"/>
<path d="M38.5143 0.184027C38.2318 0.0194768 37.8996 -0.0379105 37.5782 0.0223554C37.2569 0.0826213 36.968 0.256507 36.7643 0.512241L33.374 5.76151C33.2094 6.04401 33.152 6.37629 33.2123 6.69762C33.2726 7.01894 33.4464 7.30785 33.7022 7.51152V7.51152C33.9847 7.67607 34.317 7.73346 34.6383 7.67319C34.9596 7.61292 35.2485 7.43902 35.4522 7.18328L38.8425 1.93403C39.0071 1.65153 39.0645 1.31925 39.0042 0.997926C38.9439 0.676601 38.7701 0.387699 38.5143 0.184027Z" fill="#D23427"/>
<path d="M47.7013 10.6831C47.4976 10.4274 47.2087 10.2535 46.8874 10.1933C46.5661 10.133 46.2338 10.1904 45.9513 10.3549L40.8087 13.8549C40.5529 14.0586 40.379 14.3475 40.3187 14.6688C40.2585 14.9902 40.3159 15.3224 40.4804 15.6049V15.6049C40.6841 15.8607 40.973 16.0346 41.2943 16.0948C41.6157 16.1551 41.9479 16.0977 42.2304 15.9332L47.3731 12.4331C48.0287 12.1049 48.0287 11.3396 47.7013 10.6831Z" fill="#D23427"/>
<path d="M49.779 26.4323C49.8371 26.0714 49.7567 25.7018 49.5539 25.3977C49.3511 25.0935 49.0409 24.8771 48.6854 24.792L42.67 23.5888C42.3091 23.5306 41.9395 23.611 41.6353 23.8138C41.3312 24.0166 41.1148 24.3268 41.0297 24.6823V24.6823C40.9716 25.0432 41.0519 25.4128 41.2547 25.717C41.4575 26.0211 41.7677 26.2375 42.1232 26.3227L48.1386 27.5259C48.3042 27.5766 48.4789 27.5906 48.6504 27.567C48.822 27.5434 48.9864 27.4827 49.1321 27.3891C49.2778 27.2956 49.4015 27.1714 49.4944 27.0252C49.5873 26.8791 49.6472 26.7144 49.67 26.5427L49.779 26.4323Z" fill="#D23427"/>
<path d="M61.7621 10.5303H58.1532V29.1224C58.1349 29.4602 58.1835 29.7983 58.2962 30.1173C58.4088 30.4363 58.5833 30.7299 58.8096 30.9813C59.3273 31.4215 59.9892 31.6553 60.6685 31.6378H72.6985V28.3571H61.7621V10.5303Z" fill="#010101"/>
<path d="M82.5415 16.1072H80.0262C78.3772 16.0633 76.7736 16.65 75.5422 17.7476C74.9668 18.3183 74.5146 19.0011 74.2136 19.7536C73.9126 20.5061 73.7692 21.3124 73.7922 22.1226V25.8404C73.7546 26.6522 73.8914 27.4626 74.1932 28.2172C74.4951 28.9717 74.9551 29.6528 75.5422 30.2147C76.1357 30.7831 76.8406 31.2223 77.6123 31.5046C78.3841 31.787 79.206 31.9063 80.0262 31.855H82.5415C84.1909 31.8995 85.7951 31.3131 87.0269 30.2154C87.6023 29.6448 88.0544 28.9621 88.3554 28.2097C88.6565 27.4573 88.7999 26.6512 88.7769 25.8412V22.1226C88.8146 21.3107 88.678 20.5001 88.3761 19.7454C88.0742 18.9908 87.6142 18.3095 87.0269 17.7476C85.8054 16.6327 84.1941 16.0434 82.5415 16.1072V16.1072ZM77.3989 22.233C77.3474 21.4487 77.5804 20.6722 78.0553 20.0459C78.2916 19.7907 78.5806 19.5899 78.9023 19.4575C79.2239 19.325 79.5705 19.2642 79.918 19.279H82.4334C82.7813 19.254 83.1303 19.31 83.4529 19.4429C83.7755 19.5757 84.0628 19.7816 84.2923 20.0444C84.5502 20.342 84.742 20.691 84.8549 21.0683C84.9678 21.4456 84.9993 21.8426 84.9472 22.233V25.8404C84.9819 26.2384 84.9315 26.6392 84.7996 27.0162C84.6677 27.3933 84.4571 27.738 84.1819 28.0275C83.9305 28.2918 83.624 28.4974 83.2841 28.6297C82.9443 28.762 82.5794 28.8177 82.2156 28.7929H79.918C79.5701 28.8179 79.221 28.7619 78.8985 28.6291C78.5759 28.4962 78.2885 28.2903 78.0591 28.0275C77.8011 27.7302 77.6091 27.3815 77.4959 27.0045C77.3828 26.6274 77.351 26.2307 77.4027 25.8404L77.3989 22.233Z" fill="#010101"/>
<path d="M102.008 17.2009C101.736 16.9334 101.396 16.7444 101.025 16.6541C100.348 16.307 99.5993 16.12 98.838 16.1074H96.9791C95.8709 16.0736 94.774 16.3379 93.8028 16.8727C92.8964 17.3973 92.1433 18.1504 91.6187 19.0568C91.0715 20.0624 90.807 21.1974 90.8533 22.3413V25.622C90.8378 26.7145 91.0619 27.7972 91.5098 28.7938C91.9945 29.6955 92.7122 30.4508 93.588 30.9809C94.4777 31.513 95.5013 31.7786 96.5375 31.7463H98.8342C99.5586 31.7197 100.268 31.533 100.912 31.1995C101.215 30.9762 101.545 30.7925 101.895 30.6527V31.6358C101.965 32.4221 101.73 33.2051 101.238 33.823C101.031 34.0835 100.763 34.2895 100.458 34.4229C100.153 34.5563 99.8204 34.6131 99.4884 34.5883H96.9791C96.5077 34.5779 96.0505 34.4255 95.667 34.1512C95.4992 34.048 95.3608 33.9033 95.265 33.7311C95.1693 33.559 95.1194 33.365 95.1202 33.168V32.8398H91.5098V33.2747C91.5411 33.9053 91.703 34.5226 91.9854 35.0873C92.2678 35.6521 92.6644 36.152 93.1501 36.5554C94.1893 37.4188 95.5207 37.8496 96.8687 37.7586H99.3841C100.196 37.7962 101.006 37.6594 101.761 37.3576C102.515 37.0557 103.196 36.5957 103.758 36.0086C104.845 34.771 105.431 33.1716 105.399 31.5247V16.3237H102.008V17.3068V17.2009ZM101.025 20.0445C101.529 20.5403 101.839 21.1994 101.9 21.9034V24.8529C101.825 25.7725 101.481 26.6499 100.912 27.3758C100.665 27.6612 100.364 27.8951 100.027 28.0638C99.6893 28.2325 99.3218 28.3328 98.9454 28.3589H96.8687C96.554 28.3721 96.2407 28.3094 95.9552 28.1762C95.6698 28.043 95.4205 27.8432 95.2284 27.5936C94.7691 26.9595 94.5377 26.1887 94.5719 25.4065V22.3413C94.5378 21.9266 94.588 21.5093 94.7195 21.1146C94.8511 20.7198 95.0612 20.3558 95.3373 20.0445C95.5676 19.7755 95.8524 19.5584 96.1728 19.4076C96.4933 19.2567 96.8421 19.1756 97.1962 19.1695H99.1625C99.8537 19.2782 100.5 19.5818 101.024 20.0445H101.025Z" fill="#010101"/>
<path d="M113.055 16.3262H109.446V31.7465H113.055V16.3262Z" fill="#010101"/>
<path d="M111.304 10.7491C110.712 10.7456 110.136 10.9378 109.664 11.2959C109.449 11.51 109.279 11.766 109.166 12.0481C109.053 12.3302 108.999 12.6325 109.008 12.9362C108.999 13.24 109.053 13.5422 109.166 13.8243C109.279 14.1064 109.449 14.3624 109.664 14.5766C109.885 14.7764 110.144 14.9282 110.427 15.0223C110.709 15.1164 111.008 15.1508 111.304 15.1233C111.897 15.1268 112.473 14.9346 112.945 14.5766C113.145 14.3559 113.296 14.0962 113.391 13.8138C113.485 13.5314 113.519 13.2326 113.492 12.9362C113.495 12.3441 113.303 11.7674 112.945 11.2959C112.465 10.9538 111.894 10.7634 111.304 10.7491V10.7491Z" fill="#010101"/>
<path d="M127.053 25.9502C127.087 26.6473 126.895 27.3368 126.506 27.9165C126.308 28.1521 126.054 28.3353 125.768 28.4498C125.482 28.5642 125.172 28.6065 124.866 28.5729H122.569C122.248 28.5915 121.926 28.5427 121.625 28.4297C121.323 28.3166 121.049 28.1418 120.819 27.9165C120.362 27.3665 120.127 26.6647 120.163 25.9502V22.2331C120.111 21.4488 120.344 20.6723 120.819 20.046C121.026 19.7854 121.294 19.5795 121.599 19.4461C121.904 19.3127 122.237 19.2559 122.569 19.2806H124.866C125.458 19.2771 126.035 19.4693 126.506 19.8274C126.713 20.0207 126.87 20.2605 126.965 20.5269C127.06 20.7933 127.09 21.0785 127.053 21.3589V21.796H130.553V21.3589C130.595 20.6374 130.469 19.916 130.184 19.2517C129.9 18.5874 129.464 17.9984 128.913 17.5314C128.349 17.0285 127.691 16.6437 126.977 16.3995C126.262 16.1553 125.506 16.0567 124.753 16.1096H122.347C121.536 16.072 120.725 16.2087 119.971 16.5106C119.216 16.8125 118.535 17.2725 117.973 17.8596C117.423 18.443 116.995 19.1303 116.713 19.8813C116.432 20.6323 116.304 21.4318 116.335 22.2331V26.0598C116.298 26.8554 116.435 27.6496 116.737 28.3865C117.04 29.1234 117.5 29.7851 118.085 30.3252C118.663 30.8842 119.349 31.3183 120.102 31.6005C120.854 31.8827 121.657 32.0069 122.459 31.9655H124.865C125.636 32.0079 126.406 31.8833 127.124 31.6002C127.842 31.3171 128.49 30.8821 129.025 30.3252C130.091 29.1621 130.677 27.6379 130.665 26.0598V25.6227H127.275V25.9509H127.056L127.053 25.9502Z" fill="#010101"/>
<path d="M146.522 22.2319C147.338 21.9153 148.056 21.3867 148.6 20.7005C149.246 19.8537 149.592 18.816 149.583 17.751V15.6728C149.608 14.9796 149.485 14.289 149.22 13.6476C148.956 13.0061 148.558 12.4287 148.052 11.9542C147.489 11.4514 146.83 11.0665 146.116 10.8223C145.402 10.5781 144.645 10.4795 143.892 10.5324H133.287V31.7473H136.896V23.5448H142.039C142.682 23.5467 143.303 23.7797 143.789 24.2013C144.396 24.7058 144.819 25.3972 144.992 26.1676L146.632 31.745H150.351L148.601 25.8393C148.28 24.4578 147.556 23.2025 146.522 22.2319V22.2319ZM136.789 13.8109H143.679C144.241 13.7871 144.79 13.9832 145.21 14.3577C145.395 14.5438 145.539 14.7663 145.633 15.011C145.728 15.2558 145.77 15.5175 145.757 15.7794V17.9666C145.782 18.2986 145.725 18.6316 145.592 18.9366C145.458 19.2416 145.252 19.5094 144.992 19.7166C144.399 20.1754 143.662 20.4081 142.914 20.373H136.68L136.789 13.8109H136.789Z" fill="#010101"/>
<path d="M160.41 16.1076H158.004C156.543 16.0541 155.11 16.5188 153.958 17.4197C153.466 17.835 153.073 18.355 152.808 18.9416C152.543 19.5281 152.413 20.1665 152.426 20.81V21.2502H155.926V20.8131C155.925 20.6161 155.975 20.4222 156.071 20.25C156.167 20.0778 156.305 19.9332 156.473 19.8299C156.931 19.5407 157.463 19.3889 158.004 19.3928H160.41C160.672 19.3798 160.933 19.4218 161.178 19.516C161.422 19.6102 161.644 19.7546 161.829 19.9398C162.015 20.1251 162.159 20.3471 162.253 20.5915C162.347 20.836 162.389 21.0974 162.376 21.3591V22.6712C162.032 22.4787 161.665 22.3315 161.283 22.2333C160.643 22.0589 159.979 21.9851 159.317 22.0148H157.567C156.192 21.9768 154.845 22.4004 153.739 23.218C153.258 23.6188 152.872 24.1205 152.607 24.6875C152.343 25.2546 152.206 25.8729 152.208 26.4987V27.4819C152.188 28.0997 152.306 28.7141 152.552 29.2812C152.797 29.8484 153.165 30.3542 153.629 30.7625C154.694 31.5795 156.007 32.0045 157.348 31.9658H159.098C159.943 31.9543 160.77 31.7284 161.504 31.3093C161.886 31.0803 162.251 30.8245 162.597 30.544V31.7472H165.988V21.3568C166.013 20.6639 165.89 19.9736 165.626 19.3324C165.362 18.6911 164.965 18.1137 164.459 17.639C163.928 17.116 163.294 16.7096 162.596 16.4459C161.899 16.1822 161.154 16.067 160.41 16.1076V16.1076ZM162.376 25.8407V26.3875C162.187 27.0911 161.762 27.7086 161.173 28.1375C160.572 28.5808 159.841 28.8117 159.095 28.794H157.35C156.848 28.7658 156.36 28.6158 155.928 28.3569C155.491 28.1383 155.491 27.8101 155.491 27.3737V26.4972C155.491 26.3002 155.54 26.1063 155.636 25.9341C155.732 25.7619 155.87 25.6173 156.038 25.514C156.455 25.2236 156.952 25.0708 157.46 25.0769H159.317C159.941 25.0957 160.563 25.1688 161.175 25.2955C161.619 25.3646 162.035 25.5531 162.379 25.8407H162.376Z" fill="#010101"/>
<path d="M179.439 25.294C179.312 26.1433 178.885 26.919 178.236 27.4811C177.984 27.7522 177.68 27.9695 177.343 28.1199C177.005 28.2703 176.64 28.3507 176.27 28.3561H174.52C174.276 28.358 174.033 28.3105 173.808 28.2166C173.583 28.1226 173.378 27.9841 173.208 27.8094C172.833 27.3045 172.64 26.6877 172.661 26.0594V16.3262H169.05V26.0594C169.033 27.5335 169.537 28.9663 170.471 30.1062C170.953 30.6039 171.532 30.9969 172.172 31.2604C172.812 31.5239 173.5 31.6523 174.192 31.6376H176.051C176.827 31.6239 177.584 31.3968 178.238 30.9812C178.567 30.7626 178.895 30.4344 179.222 30.2158V31.419C179.291 32.2053 179.056 32.9883 178.565 33.6062C178.358 33.8667 178.09 34.0727 177.785 34.2061C177.48 34.3395 177.147 34.3963 176.815 34.3715H174.518C174.047 34.3611 173.59 34.2087 173.206 33.9344C173.038 33.8312 172.9 33.6865 172.804 33.5143C172.708 33.3422 172.659 33.1483 172.659 32.9512V32.623H169.05V33.0601C169.081 33.6908 169.243 34.308 169.525 34.8728C169.808 35.4375 170.204 35.9374 170.69 36.3408C171.729 37.2042 173.061 37.635 174.409 37.5441H176.705C177.517 37.5817 178.328 37.4449 179.082 37.1431C179.837 36.8412 180.518 36.3812 181.08 35.7941C182.167 34.5564 182.752 32.9571 182.72 31.3101V16.3262H179.108L179.436 25.294H179.439Z" fill="#010101"/>
<path d="M198.469 24.2013C197.731 23.5314 196.823 23.0774 195.844 22.8891L190.814 22.0141C190.493 21.936 190.194 21.7866 189.939 21.577C189.859 21.512 189.797 21.4277 189.758 21.332C189.72 21.2363 189.707 21.1324 189.72 21.0302V20.3738C189.72 20.0456 189.939 19.827 190.157 19.4988C190.593 19.2627 191.084 19.1493 191.579 19.1706H193.985C194.456 19.181 194.913 19.3333 195.297 19.6077C195.47 19.7563 195.609 19.941 195.703 20.1488C195.798 20.3567 195.846 20.5826 195.844 20.8109V21.248H199.346V20.8109C199.354 20.1622 199.233 19.5183 198.989 18.9173C198.744 18.3162 198.382 17.77 197.924 17.3109C196.897 16.4134 195.566 15.9438 194.203 15.9988H191.688C190.29 15.9103 188.903 16.2956 187.751 17.0923C187.267 17.4407 186.874 17.9013 186.608 18.4347C186.341 18.9681 186.208 19.5582 186.219 20.1545V21.1376C186.212 21.6106 186.306 22.0796 186.494 22.5134C186.683 22.9472 186.962 23.3357 187.313 23.653C188.107 24.3663 189.098 24.8236 190.156 24.9651L195.187 25.8401C195.45 25.9294 195.706 26.0391 195.952 26.1683C196.171 26.278 196.171 26.4965 196.171 26.7151V27.5901C196.166 27.7435 196.123 27.8934 196.047 28.0267C195.971 28.16 195.863 28.2728 195.734 28.3555C195.263 28.6034 194.733 28.717 194.202 28.6837H191.687C191.125 28.7075 190.576 28.5113 190.156 28.1369C189.8 27.7492 189.605 27.2411 189.609 26.7151V26.278H186.111V26.7151C186.086 27.4083 186.21 28.0989 186.474 28.7404C186.738 29.3818 187.137 29.9592 187.643 30.4337C188.206 30.9365 188.864 31.3214 189.578 31.5656C190.293 31.8098 191.049 31.9084 191.802 31.8555H194.317C195.747 31.9273 197.163 31.545 198.363 30.7634C198.861 30.4213 199.27 29.9646 199.555 29.4319C199.841 28.8991 199.994 28.3056 200.003 27.7013V26.607C199.556 25.7657 199.043 24.9613 198.469 24.2013V24.2013Z" fill="#010101"/>
</g>
<defs>
<clipPath id="clip0_332_65">
<rect width="200" height="47.6465" fill="white"/>
</clipPath>
</defs>
</svg>
