<svg id="Layer_1" data-name="Layer 1" xmlns="http://www.w3.org/2000/svg" xmlns:xlink="http://www.w3.org/1999/xlink" viewBox="0 0 237.32 69.37"><defs><style>.cls-1{fill:#0097db;}.cls-2{fill:#eff3f5;}.cls-3{fill:#203541;}.cls-4{fill:#fff;}.cls-5{clip-path:url(#clip-path);}</style><clipPath id="clip-path"><line id="SVGID" x1="2.65" y1="33.08" x2="234.67" y2="33.09"/></clipPath></defs><title>Untitled-2</title><path class="cls-1" d="M72.68.7H56.47A14.06,14.06,0,0,0,42.41,14.76V27H73.94A2.11,2.11,0,0,0,76,24.94V4.06A3.36,3.36,0,0,0,72.68.7Z"/><path class="cls-1" d="M76,24h4.29a3,3,0,0,1,3,3H75.31"/><rect class="cls-1" x="78.82" y="27.04" width="2.26" height="5.35"/><path class="cls-2" d="M55.59,6.16H67.4c3.06,0,4.33,1.63,4.33,5.24h0c0,2.76-.39,4.57-3,4.57H52.85c-3.64,0-4-1.32-4-4.39S52.52,6.16,55.59,6.16Z"/><path class="cls-3" d="M54.79,5.61A6.6,6.6,0,0,0,48.2,12.2v1.32A3.45,3.45,0,0,0,51.64,17H68.81a3.45,3.45,0,0,0,3.45-3.45V9.06a3.45,3.45,0,0,0-3.45-3.45h-14Zm0,1.4h4.74V9H50.67A5.19,5.19,0,0,1,54.79,7ZM70.86,9H68.6a.7.7,0,0,0,0,1.4h2.26v3.1a2.05,2.05,0,0,1-2.05,2.05H51.64a2.05,2.05,0,0,1-2.05-2.05V12.2a5.17,5.17,0,0,1,.31-1.77H66.27a.7.7,0,0,0,0-1.4H60.92V7h7.88A2.05,2.05,0,0,1,70.86,9Z"/><path class="cls-3" d="M80.33,23.32H76.74V5h0v-1A4.06,4.06,0,0,0,72.68,0H56.47A14.77,14.77,0,0,0,41.71,14.76V27a.7.7,0,0,0,.7.7H78.12v4.65a.7.7,0,0,0,.7.7h2.26a.7.7,0,0,0,.7-.7V27.74h1.58a.7.7,0,0,0,.7-.7A3.73,3.73,0,0,0,80.33,23.32Zm-37.22,3V21h1.12a.7.7,0,0,0,0-1.4H43.11v-.94h1.12a.7.7,0,0,0,0-1.4H43.11V14.76A13.38,13.38,0,0,1,56.47,1.4H72.68a2.66,2.66,0,0,1,2.66,2.66V5.68h0V20.52h-1a.7.7,0,0,0,0,1.4h1v3a1.41,1.41,0,0,1-1.41,1.41ZM80.38,31.7h-.86v-4h.86Zm.7-5.35H76.36a2.79,2.79,0,0,0,.38-1.41v-.22h3.59a2.34,2.34,0,0,1,2.22,1.63Z"/><polygon class="cls-1" points="110.37 8.13 96.38 32.35 124.36 32.35 110.37 8.13"/><polygon class="cls-1" points="110.37 8.13 126.43 8.13 140.42 32.35 124.36 32.35 110.37 8.13"/><polygon class="cls-2" points="104.12 32.39 110.37 32.39 110.21 9.39 104.12 32.39"/><path class="cls-3" d="M141.06,32,129.4,11.79l-2.23-3.86V5.27a.74.74,0,1,0-1.47,0V7.39H111.1V5.27a.74.74,0,1,0-1.47,0V7.93L95.74,32a.74.74,0,0,0,.64,1.11h44a.74.74,0,0,0,.64-1.11Zm-43.4-.37L108.38,13l-4.65,18.57Zm12,0h-4.38l4.38-17.51Zm4.42,0H111.1V10.88l12,20.74Zm10.73,0L111.64,8.86H126l2.11,3.66,11,19.09Z"/><polygon class="cls-1" points="167.87 28.35 183.52 28.35 183.52 13.27 194.27 13.27 190.87 5.83 156.94 5.83 153.62 17.09 156.13 25.01 167.87 28.35"/><polygon class="cls-1" points="186.84 28.35 183.52 28.35 183.52 13.27 189.74 13.27 193.14 18.65 197.75 20.81 197.75 28.35 194.97 28.35 186.84 28.35"/><polygon class="cls-2" points="189.74 13.27 183.52 13.27 183.52 18.65 193.14 18.65 189.74 13.27"/><polygon class="cls-4" points="197.75 22.99 197.75 20.81 194.97 19.51 194.97 22.99 197.75 22.99"/><polygon class="cls-1" points="167.87 28.35 183.52 28.35 183.52 25.01 166.37 25.01 161.5 25.01 153.7 25.01 153.7 28.35 159.74 28.35 167.87 28.35"/><circle class="cls-2" cx="163.81" cy="28.35" r="4.07"/><circle class="cls-3" cx="163.81" cy="28.35" r="1.74"/><circle class="cls-2" cx="190.9" cy="28.35" r="4.07"/><circle class="cls-3" cx="190.9" cy="28.35" r="1.74"/><rect class="cls-2" x="159.43" y="9.91" width="8.81" height="4.56"/><rect class="cls-2" x="171.28" y="9.91" width="8.81" height="15.1"/><path class="cls-3" d="M198,20.21l-4.44-2.08L191,13.95h3.31a.67.67,0,0,0,.61-1l-3.4-7.45a.67.67,0,0,0-.61-.39H156.94a.67.67,0,0,0-.64.48L153,16.89h0l0,.08v0a.69.69,0,0,0,0,.08h0a.67.67,0,0,0,0,.08v0l0,.09,2.23,7H153.7A.67.67,0,0,0,153,25v3.34a.67.67,0,0,0,.67.67h5.41a4.74,4.74,0,0,0,9.38,0h17.72a4.74,4.74,0,0,0,9.38,0h2.16a.67.67,0,0,0,.67-.67V20.81A.67.67,0,0,0,198,20.21Zm-1,2.11h-1.44V20.56l1.44.68ZM191.92,18h-7.72v-4h5.18Zm-9.07,9.71H168.5a4.71,4.71,0,0,0-.78-2h15.14Zm-10.62-9.92h7.07v6.57h-7.07V17.76Zm7.07-1.34h-7.07v-6h7.07Zm1.34,7.92V17.76h2.2v6.57ZM157.45,6.5h33l2.78,6.1h-9.7a.67.67,0,0,0-.67.67v3.15h-2.2V9.8a.67.67,0,0,0-.67-.67h-8.42a.67.67,0,0,0-.67.67v6.62H154.52Zm-2.91,11.26h16.35v6.57h-4.57a4.72,4.72,0,0,0-5,0h-4.67Zm-.16,7.92h5.52a4.71,4.71,0,0,0-.78,2h-4.74Zm9.43,6.07a3.39,3.39,0,1,1,3.39-3.39A3.4,3.4,0,0,1,163.81,31.75Zm27.1,0a3.4,3.4,0,0,1-3.39-3.39h0a3.39,3.39,0,1,1,3.39,3.4Zm4.69-4.07a4.74,4.74,0,0,0-9.38,0h-2V19.32H193l1.31.61V23a.67.67,0,0,0,.67.67h2.12v4Z"/><path class="cls-3" d="M159.6,15.25H168a.67.67,0,0,0,.67-.67V9.8a.67.67,0,0,0-.67-.67H159.6a.67.67,0,0,0-.67.67v4.79A.67.67,0,0,0,159.6,15.25Zm7.75-1.34H164.4V10.47h2.95Zm-7.07-3.44h2.78v3.44h-2.78Z"/><line id="SVGID-2" data-name="SVGID" x1="2.65" y1="33.08" x2="234.67" y2="33.09"/><g class="cls-5"><rect y="30.43" width="237.32" height="5.32"/></g><rect class="cls-3" x="2.65" y="31.49" width="232.02" height="1.59"/><path class="cls-3" d="M30.09,64.92l-.33.33L29,65.9l-.49.37-.77.57-.49.33-.82.45-.53.29-.94.45-.61.2-.69.2-.69.12-1,.2-1.43.16-.73,0-1,.08H16.68l-.69,0-.69-.08-.69-.12L13.9,69l-.61-.2-1.84-.49-.9-.33L10,67.7l-.77-.45-.49-.37-.53-.37-.57-.37-1.06-.9-.49-.49-.45-.53-.45-.61L4.85,63l-.33-.57-.29-.57L3.83,61l-.61-1.71-.29-.82L2.53,57.3l-.08-.61,0-.94,0-.61,0-.65v-.69l.08-1.39,0-.65.12-.61.16-.9.16-.61.2-.61.2-.57.29-.82L4,47.06l.29-.61.33-.61L5,45.23l.37-.57.41-.53.45-.57L6.73,43l.49-.45.53-.45.49-.41,1.31-.9.53-.33.57-.33,1.22-.57.69-.24.65-.2,1.39-.33.69-.12.69-.08,1.26-.08.9-.08.61,0,.9,0,1.51.2.57.12.94.16,1.43.41.57.24.9.53.57.33,1.06.73,1.26.9.45.33.24.2.29.29.08.33,0,.33-.24.33-.37.45-.45.45-.45.41-.45.37-.45.45-.69.82-.45.49-.2.2-.37.33-.29.12-.29,0L24.51,48l-.45-.24-.77-.57-.53-.29-.9-.41-.57-.2-.9-.24-.61-.12-1-.08H18.1l-.9.08-.65.16-.9.29-.61.24-.53.2-.82.41-.57.41-.29.24-.49.53L12,49l-.29.53-.29.57-.24.61-.2.65-.12.69-.08.61-.08,1.22v.65l0,1,0,.61.2.94.2.61.29.69.33.61.61.9.45.49.77.65.53.37.82.41.61.24.9.24.65.12,1,0H19l.57-.12.33-.08.61-.2,1-.37.65-.29.61-.29.53-.29.78-.49.53-.41.41-.29.24-.08.37.08.45.29.45.41.16.24.41.45.65.82.41.49,1.1,1.26.37.49.2.2.2.37Z"/><path class="cls-3" d="M65.38,67.49l.12.57-.29.45-.45.2-.53.08h-.57l-.94-.08-.61,0H60.28l-2.53.16-.53-.16L57,68.35l-.2-.45-1.26-3.43-.29-.41L54.86,64l-.49,0-2.45-.16h-.65l-3.06-.08-2.45,0h-.61l-.61,0H42.66l-.53.08-.33.2-.24.49-.94,2.77-.24.65-.45.53-.61.24-.65,0-2.37-.12h-.65l-2.53.16-.53,0-.49-.24L31.77,68l0-.53.08-.33.24-.65.57-1.26.24-.61,1-2.28.24-.57,1.06-2.28.24-.61.94-2.2.24-.61,1.1-2.28.24-.57,1.47-3.34,1.14-2.45.29-.65.9-1.83.29-.65.77-1.88.24-.61.73-1.67.2-.45.41-.24.61-.12L47,39.23h3.18l1.88,0,.69.12.45.33.2.53L54,41.84l.24.61,1,1.92.24.57.9,2,.24.57.73,2.08.24.57.9,2,.24.57.9,2,.24.57.82,2,.24.57L62.2,60.4l1,1.92.29.57,1.1,2.57ZM51.76,56l-.16-.53-.9-2.77-.2-.61-.82-2.41-.2-.53-.41-.29-.53-.12-.45.12-.41.41L46.58,52l-.24.61-1.06,2.73-.12.61.12.49.45.2.57.08h2.57l1.92.12.53-.16.33-.33Z"/><path class="cls-3" d="M101.44,64.92l0,.65.16,1.26,0,.61,0,.33,0,.45-.2.33-.24.2-.45.08-.61,0h-.65l-1.63-.12-.69,0h-1l-.73,0-1.51-.2-.29-.08-.16-.2,0-.41,0-.57,0-.61.08-1.39V61.37l-.12-2.57v-.65l.16-2.53V52.44L93.32,52l-.24-.16h-.24l-.29.37-.41.57-1.71,2-2.49,3-1.63,2-.37.33-.29.12h-.33l-.45-.08-.49-.12-.45-.33-2-2.45-1.51-2L80,54.69l-2.12-2.37-.53-.53-.24.08-.08.45-.12,2.57v.65L77,58.11v.65l.08,2.57V62l0,2.53v.61l0,1.22,0,.65,0,.69-.08.53-.16.24-.29.08-1.06.12-.65,0-1.59-.12-.65,0-2,.16h-.94l-.49-.08-.24-.24-.08-.29-.08-.41v-.94l.08-1.26V59.3l-.08-2.16v-.65l0-2.16,0-.65-.12-2.2v-.65l.12-2.16,0-.65-.16-2.16,0-.65L68.85,43v-.65l-.16-1.51v-.65l.08-.53.16-.29.24-.2.33-.08.53,0,.69.08.9.2h.65l1.26-.12.69-.08.61,0,1.55,0h.53l.45.2.41.45,1.43,1.59.41.53,1.18,1.67.41.53,1.35,1.59.41.57,1.26,1.59.41.45.37.2h.41l.37-.2.37-.41,1.22-1.63.41-.57,1.31-1.59.41-.53L90.91,42l.41-.53,1.06-1.31.33-.45.33-.33.41-.2.53,0,2.16.12,1.92,0h.65l1.22-.08.69,0,.49.08.29.08.24.2.08.33,0,.49-.16,1.84,0,.65.08,2.16v.65l0,2.16v.65l0,2.16v.65l.16,2.2v.65l-.16,2.16v.65l.12,2.16v.65l-.16,2.16v.65Z"/><path class="cls-3" d="M133.41,49.67l0,.61,0,.61,0,.69-.2,1-.12.65-.33.82-.24.57-.41.77-.37.53-.57.77-.45.49-.53.49-.53.45-.53.37-.57.37-.9.41-.61.29-.69.29-.61.2-.9.24-.61.12-.61.08-.65,0-1.06.08h-3.43l-.69,0-.69,0-.69.08-.49.08-.12.29,0,.53-.16,2.73V65l0,1.22,0,.61,0,.9-.08.45-.12.24-.2.08-.45.08-1.31.08-1.59-.08h-.65l-1.31.08-.65,0-.94,0-.53-.16-.24-.24-.08-.49-.08-.61,0-.65V62.07l.16-2.16v-.65l-.16-2.16v-.65l-.08-5v-.65l.16-2.2V48l-.12-2.16v-.65l.16-2.16v-.61l-.08-1.22,0-.61,0-.33.08-.45.12-.24.2-.2.45,0,1.18-.08.94,0h.61l2.73,0h2.73l2.73.16h2.69l1.55-.08.57,0h.33l.61.12.94.24.65.2.65.24.61.29.61.37.53.41.73.65.49.41.2.24.73.73.41.53.2.24.29.49.16.24.24.53.2.61.16.57,0,.29.16.57.08.33.16.57.24,1.14Zm-12.19,4,.73-.08.69-.16.33-.12.57-.33.24-.16.41-.41.16-.24.29-.53.12-.29.16-.65,0-.29v-1l-.12-.61-.12-.33-.24-.53-.16-.24-.45-.49-.33-.2-.61-.33-1.06-.29-.65-.08h-.94l-1.22.08-1.79-.12h-.61l-.33,0-.45.08-.16.12-.12.29-.08.49v.94l.12,1.51,0,.65,0,2.37,0,.49.12.29.45.16,2.12.16Z"/><path class="cls-3" d="M179.36,39.84l-2,5.14-.24.61-.69,2.28-.24.61-1,2.28-.2.61-.65,2.28-.24.65-1,2.12-.24.65-.65,2.32L172,60,171,62.27l-.2.61L170,65.17l-.2.65-.69,2.28-.16.41-.2.2-.29,0-2.73-.08-3.18-.2-.41-.08-.2-.33-1-2-.2-.57L160,63.37l-.16-.57-.73-2.08-.2-.57-.82-2.08-.24-.57-.73-2-.2-.37h-.12l-.16.37-.73,2.08-.2.57-1,2-.2.57-.65,2.16-.2.57-.69,2.08-.24.57-.78,2-.2.45-.45.2-2.53-.2h-.65l-2.53.2-.37-.2L145,68l-1.14-2.2-.2-.61-.57-2.32-.2-.61-1-2.28-.24-.61-.86-2.2-.2-.65-.69-2.32-.2-.61-2-5.14-.24-.61-.73-2.28-.29-.65-1-2.12-.29-.61-.94-2.32,0-.49.24-.29.45-.12h.61l1.59.12h.65l2.81,0h2.2l.53,0,.16.16.08.41.94,2.69.2.61.82,2.61.2.61,1.06,2.45.2.61.82,2.49.12.65.49,2.57.16.37.24,0,.24-.33.69-2.08.2-.57.53-2.16.16-.61.61-2,.16-.61.69-2.12.16-.57.65-2.12.2-.57.61-1.75.16-.45.2-.2.45-.08,2-.16.61,0,.9,0h.61l.61,0,.41.16.24.41L160,40l.24.57.45,1.14.2.57.61,2.12.16.57.65,2.12.16.57.49,2.16.2.57,1,2,.16.57.12.94.12.65.16.61.24.33.24,0,.2-.45.49-2.37.16-.61.33-.86.2-.61.33-.9.2-.65.41-1.92.2-.65.69-1.84.24-.61.77-1.84.2-.61.41-1.55.16-.49.24-.29.49-.08,2.16.16h.65l2.2-.12h.65l2.16.16h.45l.16.12Z"/><path class="cls-3" d="M205.71,64.8l0,.65-.16,2.2,0,.41-.16.29-.2.16-5.34.16h-.65l-2.16-.16-.65,0-2.12.16-.65,0H190.7l-2.12-.16h-.65l-3.51.2L183,68.72l-.49-.08-.29-.2-.12-.29-.08-.45-.08-.94,0-.65,0-.61v-.61l.16-2.16v-.65l0-2.16,0-.65L182,57.09l0-.65.08-2.2V50.77l.16-2.16,0-.65-.12-2.16,0-.65v-1l.08-1.22v-.61l.12-2.12,0-.57.12-.33.2-.16.33,0,.53-.08,2.65.16,2.49,0h.65l2.45.16h.65l2.45-.16h.65l5.55.08.69,0,1.39-.12h1l.57.12.24.2.08.29.08.53v1.1l-.08,1V43l0,1,0,.61,0,.61-.08.49-.16.29-.2.16-.49.08h-.33l-.65,0-3.83-.08h-.65l-2.08.08h-.65l-2.12-.08-1.83-.12h-.61l-.33,0-.41.08-.2.2,0,.24-.08.45-.08,1v.65l0,.69,0,.45.08.29.16.2.45.12,1.31.08,1.3-.08h3.87l4.57-.24,1.26.08.45.08.24.2.12.24,0,.45.08.69,0,.69v1.35l.08.94-.08,1.22-.08.49L204,57l-.29.2-.41.08h-.82l-1.83-.2-.65,0-3.26.2-2.61-.08h-.65l-1.63-.12-.69,0-.49,0-.2.12-.12.29,0,.61-.12,1,0,.65v.9l0,.41.12.29.16.16.45,0,2.24.08h.65l2.2-.16,2.9.16h.65l2.9-.16h.61l.61,0,1.47.16.24.12.16.24,0,.45Z"/><path class="cls-3" d="M237,59.66l0,.65-.08,1.06-.12.61-.29.86-.24.57-.41.77-.37.53-.65.77-.45.45-1,.73-.53.33-.57.29-.61.29-.65.2-.61.2-1.83.37-.94.12-.65,0-1,.08h-.65l-2.24.08h-3.55l-2.28-.12h-.65l-2.24.08h-.61l-1.55,0-.65-.08-.57-.08-.33-.12-.2-.2-.08-.45,0-.57,0-.61v-.65l0-.33V64.8l.12-2.16,0-.65,0-1,0-.61,0-.57v-.61l0-1V56.36l.16-2.16v-.65l-.08-2.16v-.65l0-2.16,0-.65.12-2.16,0-.65-.16-2.16,0-.65-.12-1.22v-.94l.16-.53.41-.24.57-.08.65,0,4.44-.12,3.55.2,2.2-.08h.65l2.24,0h.65l2.37.16.69.08.69.12,1.55.49.61.29.77.41.53.37.69.57.41.45.57.69.29.53.45.78.24.57.2.61L236,46l.16,1.06,0,.65,0,.69-.12.69-.24.94-.24.57-.45.77-.41.45-.65.61-.33.33-.12.29.12.33.37.41.49.45.49.53.61.86.37.61.29.65.16.33.2.65.16.69.08.69ZM218.4,48.53l0,.33,0,.65.08.45.16.24.33.16.49,0h1.63l.69,0h.69l.94.08,1.39.08h.9l.53-.12.49-.24.41-.29.29-.33.24-.41.12-.57v-.69l-.12-.53-.37-.53-.57-.41-.24-.08-.61-.16-.29,0L225,46h-.37l-1.59-.2h-.61l-1,0-.65,0h-.86l-.41.08-.37,0-.24.12-.16.2-.12.53-.12,1Zm9.38,13.13.33-.29.16-.24.29-.61.12-.65,0-.24,0-.57-.12-.57-.33-.57-.24-.29-.53-.53-.65-.37-.61-.2-.29-.08-.57,0-1.84.08-.69,0H220.4l-.61,0-.73.12-.37.12-.12.2,0,.49v.69l0,.65v.9l-.08.69v.82l.08.45.16.24.29.16.53.08,5.75-.12,1.39-.08.65-.12Z"/><circle class="cls-2" cx="50.55" cy="28.39" r="4.05"/><path class="cls-3" d="M50.55,23.68a4.71,4.71,0,1,0,4.71,4.71A4.71,4.71,0,0,0,50.55,23.68Zm0,8.09a3.38,3.38,0,1,1,3.38-3.38A3.39,3.39,0,0,1,50.55,31.77Z"/><circle class="cls-3" cx="50.55" cy="28.39" r="1.7"/></svg>